#Comment line ignore any data following # character 
#Hierarchical Translation and Rotation (.htr) file 
[Header]	
#Header keywords are followed by a single value 
FileType HTR		#Single word string
DataType HTRS		#Translation followed by rotation and scale data
FileVersion 1		#integer
NumSegments 84		#integer
NumFrames 2		#integer
DataFrameRate 30		#integer, data frame rate in this file
EulerRotationOrder ZYX
CalibrationUnits mm
RotationUnits Degrees
GlobalAxisofGravity Y
BoneLengthAxis Y
ScaleFactor 1.00
[SegmentNames&Hierarchy]
#CHILD	PARENT
MASTER GLOBAL
root MASTER
chest root
L_mid_tent01 root
R_mid_tent01 root
spine01 root
Bip01_Neck chest
L_humerus chest
R_humerus chest
weapon_bone chest
Bip01_Head Bip01_Neck
eye_left_bone Bip01_Head
eye_right_bone Bip01_Head
L_forearm L_humerus
L_front_hand L_forearm
L_weapon_bone L_forearm
L_front_hand01_01 L_front_hand
L_front_hand02_01 L_front_hand
L_front_hand03_01 L_front_hand
L_front_hand01_02 L_front_hand01_01
L_front_hand02_02 L_front_hand02_01
L_front_hand03_02 L_front_hand03_01
R_forearm R_humerus
R_front_hand R_forearm
R_weapon_bone R_forearm
R_front_hand01_01 R_front_hand
R_front_hand02_01 R_front_hand
R_front_hand03_01 R_front_hand
R_front_hand01_02 R_front_hand01_01
R_front_hand02_02 R_front_hand02_01
R_front_hand03_02 R_front_hand03_01
null_rope01_connect L_mid_tent01
Rope1_Seg01 null_rope01_connect
Rope1_Seg02 Rope1_Seg01
Rope1_Seg03 Rope1_Seg02
Rope1_Seg04 Rope1_Seg03
Rope1_Seg05 Rope1_Seg04
Rope1_Seg06 Rope1_Seg05
Rope1_Seg07 Rope1_Seg06
Rope1_Seg09 Rope1_Seg07
L_mid_hand01 Rope1_Seg09
L_mid_hand02 Rope1_Seg09
L_mid_hand03 Rope1_Seg09
null_rope02_connect R_mid_tent01
Rope2_Seg01 null_rope02_connect
Rope2_Seg02 Rope2_Seg01
Rope2_Seg03 Rope2_Seg02
Rope2_Seg04 Rope2_Seg03
Rope2_Seg05 Rope2_Seg04
Rope2_Seg06 Rope2_Seg05
Rope2_Seg07 Rope2_Seg06
Rope2_Seg09 Rope2_Seg07
R_mid_hand01 Rope2_Seg09
R_mid_hand02 Rope2_Seg09
R_mid_hand03 Rope2_Seg09
spine02 spine01
spine03 spine02
pelvis spine03
null_rope03_connect pelvis
null_rope04_connect pelvis
Rope3_Seg01 null_rope03_connect
Rope3_Seg02 Rope3_Seg01
Rope3_Seg03 Rope3_Seg02
Rope3_Seg04 Rope3_Seg03
Rope3_Seg05 Rope3_Seg04
Rope3_Seg06 Rope3_Seg05
Rope3_Seg07 Rope3_Seg06
Rope3_Seg08 Rope3_Seg07
Rope3_Seg09 Rope3_Seg08
R_rear_hand01 Rope3_Seg09
R_rear_hand02 Rope3_Seg09
R_rear_hand03 Rope3_Seg09
Rope4_Seg01 null_rope04_connect
Rope4_Seg02 Rope4_Seg01
Rope4_Seg03 Rope4_Seg02
Rope4_Seg04 Rope4_Seg03
Rope4_Seg05 Rope4_Seg04
Rope4_Seg06 Rope4_Seg05
Rope4_Seg07 Rope4_Seg06
Rope4_Seg08 Rope4_Seg07
Rope4_Seg09 Rope4_Seg08
L_rear_hand01 Rope4_Seg09
L_rear_hand02 Rope4_Seg09
L_rear_hand03 Rope4_Seg09
[BasePosition]
#SegmentName Tx, Ty, Tz, Rx, Ry, Rz, BoneLength
MASTER 0.000000 0.000000 0.000000 -90.000000 0.000000 0.000000 10.000000 
root 0.000000 0.000000 0.000000 0.000000 0.000000 0.000000 10.000000 
chest 0.000000 0.000000 0.000000 0.000000 0.000000 0.000000 10.000000 
L_mid_tent01 0.000000 0.000000 0.000000 0.000000 0.000000 0.000000 10.000000 
R_mid_tent01 0.000000 0.000000 0.000000 0.000000 0.000000 0.000000 10.000000 
spine01 0.000000 0.000000 0.000000 0.000000 0.000000 0.000000 10.000000 
Bip01_Neck 0.000000 0.000000 0.000000 0.000000 0.000000 0.000000 10.000000 
L_humerus 0.000000 0.000000 0.000000 0.000000 0.000000 0.000000 10.000000 
R_humerus 0.000000 0.000000 0.000000 0.000000 0.000000 0.000000 10.000000 
weapon_bone 0.000000 0.000000 0.000000 0.000000 0.000000 0.000000 10.000000 
Bip01_Head 0.000000 0.000000 0.000000 0.000000 0.000000 0.000000 10.000000 
eye_left_bone 0.000000 0.000000 0.000000 0.000000 0.000000 0.000000 10.000000 
eye_right_bone 0.000000 0.000000 0.000000 0.000000 0.000000 0.000000 10.000000 
L_forearm 0.000000 0.000000 0.000000 0.000000 0.000000 0.000000 10.000000 
L_front_hand 0.000000 0.000000 0.000000 0.000000 0.000000 0.000000 10.000000 
L_weapon_bone 0.000000 0.000000 0.000000 0.000000 0.000000 0.000000 10.000000 
L_front_hand01_01 0.000000 0.000000 0.000000 0.000000 0.000000 0.000000 10.000000 
L_front_hand02_01 0.000000 0.000000 0.000000 0.000000 0.000000 0.000000 10.000000 
L_front_hand03_01 0.000000 0.000000 0.000000 0.000000 0.000000 0.000000 10.000000 
L_front_hand01_02 0.000000 0.000000 0.000000 0.000000 0.000000 0.000000 10.000000 
L_front_hand02_02 0.000000 0.000000 0.000000 0.000000 0.000000 0.000000 10.000000 
L_front_hand03_02 0.000000 0.000000 0.000000 0.000000 0.000000 0.000000 10.000000 
R_forearm 0.000000 0.000000 0.000000 0.000000 0.000000 0.000000 10.000000 
R_front_hand 0.000000 0.000000 0.000000 0.000000 0.000000 0.000000 10.000000 
R_weapon_bone 0.000000 0.000000 0.000000 0.000000 0.000000 0.000000 10.000000 
R_front_hand01_01 0.000000 0.000000 0.000000 0.000000 0.000000 0.000000 10.000000 
R_front_hand02_01 0.000000 0.000000 0.000000 0.000000 0.000000 0.000000 10.000000 
R_front_hand03_01 0.000000 0.000000 0.000000 0.000000 0.000000 0.000000 10.000000 
R_front_hand01_02 0.000000 0.000000 0.000000 0.000000 0.000000 0.000000 10.000000 
R_front_hand02_02 0.000000 0.000000 0.000000 0.000000 0.000000 0.000000 10.000000 
R_front_hand03_02 0.000000 0.000000 0.000000 0.000000 0.000000 0.000000 10.000000 
null_rope01_connect 0.000000 0.000000 0.000000 0.000000 0.000000 0.000000 10.000000 
Rope1_Seg01 0.000000 0.000000 0.000000 0.000000 0.000000 0.000000 10.000000 
Rope1_Seg02 0.000000 0.000000 0.000000 0.000000 0.000000 0.000000 10.000000 
Rope1_Seg03 0.000000 0.000000 0.000000 0.000000 0.000000 0.000000 10.000000 
Rope1_Seg04 0.000000 0.000000 0.000000 0.000000 0.000000 0.000000 10.000000 
Rope1_Seg05 0.000000 0.000000 0.000000 0.000000 0.000000 0.000000 10.000000 
Rope1_Seg06 0.000000 0.000000 0.000000 0.000000 0.000000 0.000000 10.000000 
Rope1_Seg07 0.000000 0.000000 0.000000 0.000000 0.000000 0.000000 10.000000 
Rope1_Seg09 0.000000 0.000000 0.000000 0.000000 0.000000 0.000000 10.000000 
L_mid_hand01 0.000000 0.000000 0.000000 0.000000 0.000000 0.000000 10.000000 
L_mid_hand02 0.000000 0.000000 0.000000 0.000000 0.000000 0.000000 10.000000 
L_mid_hand03 0.000000 0.000000 0.000000 0.000000 0.000000 0.000000 10.000000 
null_rope02_connect 0.000000 0.000000 0.000000 0.000000 0.000000 0.000000 10.000000 
Rope2_Seg01 0.000000 0.000000 0.000000 0.000000 0.000000 0.000000 10.000000 
Rope2_Seg02 0.000000 0.000000 0.000000 0.000000 0.000000 0.000000 10.000000 
Rope2_Seg03 0.000000 0.000000 0.000000 0.000000 0.000000 0.000000 10.000000 
Rope2_Seg04 0.000000 0.000000 0.000000 0.000000 0.000000 0.000000 10.000000 
Rope2_Seg05 0.000000 0.000000 0.000000 0.000000 0.000000 0.000000 10.000000 
Rope2_Seg06 0.000000 0.000000 0.000000 0.000000 0.000000 0.000000 10.000000 
Rope2_Seg07 0.000000 0.000000 0.000000 0.000000 0.000000 0.000000 10.000000 
Rope2_Seg09 0.000000 0.000000 0.000000 0.000000 0.000000 0.000000 10.000000 
R_mid_hand01 0.000000 0.000000 0.000000 0.000000 0.000000 0.000000 10.000000 
R_mid_hand02 0.000000 0.000000 0.000000 0.000000 0.000000 0.000000 10.000000 
R_mid_hand03 0.000000 0.000000 0.000000 0.000000 0.000000 0.000000 10.000000 
spine02 0.000000 0.000000 0.000000 0.000000 0.000000 0.000000 10.000000 
spine03 0.000000 0.000000 0.000000 0.000000 0.000000 0.000000 10.000000 
pelvis 0.000000 0.000000 0.000000 0.000000 0.000000 0.000000 10.000000 
null_rope03_connect 0.000000 0.000000 0.000000 0.000000 0.000000 0.000000 10.000000 
null_rope04_connect 0.000000 0.000000 0.000000 0.000000 0.000000 0.000000 10.000000 
Rope3_Seg01 0.000000 0.000000 0.000000 0.000000 0.000000 0.000000 10.000000 
Rope3_Seg02 0.000000 0.000000 0.000000 0.000000 0.000000 0.000000 10.000000 
Rope3_Seg03 0.000000 0.000000 0.000000 0.000000 0.000000 0.000000 10.000000 
Rope3_Seg04 0.000000 0.000000 0.000000 0.000000 0.000000 0.000000 10.000000 
Rope3_Seg05 0.000000 0.000000 0.000000 0.000000 0.000000 0.000000 10.000000 
Rope3_Seg06 0.000000 0.000000 0.000000 0.000000 0.000000 0.000000 10.000000 
Rope3_Seg07 0.000000 0.000000 0.000000 0.000000 0.000000 0.000000 10.000000 
Rope3_Seg08 0.000000 0.000000 0.000000 0.000000 0.000000 0.000000 10.000000 
Rope3_Seg09 0.000000 0.000000 0.000000 0.000000 0.000000 0.000000 10.000000 
R_rear_hand01 0.000000 0.000000 0.000000 0.000000 0.000000 0.000000 10.000000 
R_rear_hand02 0.000000 0.000000 0.000000 0.000000 0.000000 0.000000 10.000000 
R_rear_hand03 0.000000 0.000000 0.000000 0.000000 0.000000 0.000000 10.000000 
Rope4_Seg01 0.000000 0.000000 0.000000 0.000000 0.000000 0.000000 10.000000 
Rope4_Seg02 0.000000 0.000000 0.000000 0.000000 0.000000 0.000000 10.000000 
Rope4_Seg03 0.000000 0.000000 0.000000 0.000000 0.000000 0.000000 10.000000 
Rope4_Seg04 0.000000 0.000000 0.000000 0.000000 0.000000 0.000000 10.000000 
Rope4_Seg05 0.000000 0.000000 0.000000 0.000000 0.000000 0.000000 10.000000 
Rope4_Seg06 0.000000 0.000000 0.000000 0.000000 0.000000 0.000000 10.000000 
Rope4_Seg07 0.000000 0.000000 0.000000 0.000000 0.000000 0.000000 10.000000 
Rope4_Seg08 0.000000 0.000000 0.000000 0.000000 0.000000 0.000000 10.000000 
Rope4_Seg09 0.000000 0.000000 0.000000 0.000000 0.000000 0.000000 10.000000 
L_rear_hand01 0.000000 0.000000 0.000000 0.000000 0.000000 0.000000 10.000000 
L_rear_hand02 0.000000 0.000000 0.000000 0.000000 0.000000 0.000000 10.000000 
L_rear_hand03 0.000000 0.000000 0.000000 0.000000 0.000000 0.000000 10.000000 
#Beginning of Data. Separated by tabs
#Fr	Tx	Ty	Tz	Rx	Ry	Rz	SF
[MASTER]
4 -0.000150 891.287598 -1.811245 0.001660 0.001660 0.001660 891.289490
5 -0.000201 1182.409424 0.202155 0.001660 0.001660 0.001660 1182.409424
[root]
4 -19.392557 -3.944635 1455.660645 -89.446327 -7.150203 -90.413750 1455.795288
5 -21.329119 -9.023055 1460.579102 -88.051559 -6.033380 -90.988670 1460.762817
[chest]
4 -84.512650 -34.090519 0.000000 -2.159484 0.049984 169.063736 91.129311
5 -84.512650 -34.090519 0.000000 -2.152473 0.096388 169.649094 91.129311
[L_mid_tent01]
4 27.299109 22.179157 -249.918701 -13.273268 7.125653 15.065645 252.381683
5 27.299112 22.179161 -249.918701 -10.863654 5.435946 15.612930 252.381683
[R_mid_tent01]
4 23.228794 24.509907 226.238495 -178.177902 -9.802101 24.500072 228.744751
5 23.228794 24.509907 226.238495 177.954330 -7.329015 24.266003 228.744751
[spine01]
4 -0.361383 -0.195265 0.000000 0.002021 0.001194 28.821398 0.410763
5 -0.361383 -0.195265 0.000000 0.002042 0.001158 30.873873 0.410763
[Bip01_Neck]
4 165.484543 71.581718 0.000119 176.643677 -1.657967 43.431915 180.302734
5 165.484543 71.581718 0.000119 176.643677 -1.657967 43.431915 180.302734
[L_humerus]
4 -13.983130 -135.272980 -120.471481 -6.424970 66.088409 83.512398 181.680161
5 -13.983130 -135.272980 -120.471481 -6.616578 65.431152 83.294914 181.680161
[R_humerus]
4 -13.983309 -135.273102 125.287651 26.515450 -66.981071 69.172707 184.909012
5 -13.983309 -135.273102 125.287651 26.237028 -66.295212 69.464111 184.909012
[weapon_bone]
4 235.964890 -300.705902 0.000000 0.000000 -89.951546 -128.212341 382.234833
5 235.964890 -300.705902 0.000000 0.000000 -89.951546 -128.212341 382.234833
[Bip01_Head]
4 213.435501 185.739319 11.469325 4.968390 5.247288 -43.853752 283.170166
5 213.432617 185.747223 11.366796 4.987259 10.061257 -43.762226 283.169037
[eye_left_bone]
4 -24.626970 125.451866 -64.772606 0.000000 -90.000000 -99.840431 143.318359
5 -24.626970 125.451866 -64.772606 0.000000 -90.000000 -99.840431 143.318359
[eye_right_bone]
4 -24.626970 125.451866 64.327362 0.000000 -89.980217 80.156380 143.117676
5 -24.626970 125.451866 64.327362 0.000000 -89.965736 80.156380 143.117676
[L_forearm]
4 322.776093 0.000000 -0.000119 0.000415 -0.002310 -110.362465 322.776093
5 322.776093 0.000000 -0.000119 0.000419 -0.002309 -110.585213 322.776093
[L_front_hand]
4 241.149185 -0.042021 -3.300071 -178.667953 -1.835447 -27.422350 241.171753
5 241.149185 -0.042021 -3.300071 -178.667953 -1.835447 -27.422344 241.171753
[L_weapon_bone]
4 156.183838 0.000000 0.000000 0.000014 0.000007 0.000001 156.183838
5 156.183838 0.000000 0.000000 0.000014 0.000007 0.000001 156.183838
[L_front_hand01_01]
4 86.095154 20.947098 -0.655860 -0.365371 -0.478091 75.092094 88.609184
5 86.095154 20.947098 -0.655860 -0.358124 -0.483585 74.301987 88.609184
[L_front_hand02_01]
4 86.935165 -11.437475 24.513514 153.946487 -59.758568 -60.843468 91.046425
5 86.935165 -11.437475 24.513514 152.741364 -59.405788 -59.444736 91.046425
[L_front_hand03_01]
4 86.637497 -14.123976 -20.424902 -153.504349 57.989803 -62.217342 90.126129
5 86.637497 -14.123976 -20.424902 -152.381119 57.628048 -60.890831 90.126129
[L_front_hand01_02]
4 71.020905 -0.000179 0.000030 0.000320 -0.002325 -105.648979 71.020905
5 71.020905 -0.000179 0.000030 0.000319 -0.002325 -105.611748 71.020905
[L_front_hand02_02]
4 71.020927 -0.000119 0.000060 0.000320 -0.002325 -105.648979 71.020927
5 71.020927 -0.000119 0.000060 0.000319 -0.002325 -105.611748 71.020927
[L_front_hand03_02]
4 71.020905 -0.000060 0.000060 0.000320 -0.002325 -105.648979 71.020905
5 71.020905 -0.000060 0.000060 0.000319 -0.002325 -105.611748 71.020905
[R_forearm]
4 322.776428 -0.000060 0.000030 0.201552 0.066842 -109.019318 322.776428
5 322.776428 -0.000060 0.000030 0.201420 0.067237 -109.243912 322.776428
[R_front_hand]
4 238.847015 -0.006795 2.210259 -2.635298 -10.645461 -26.312506 238.857239
5 238.847015 -0.006795 2.210259 -2.635298 -10.645461 -26.312506 238.857239
[R_weapon_bone]
4 155.664093 0.002503 -0.000030 0.003487 0.001180 -90.988930 155.664078
5 155.664093 0.002503 -0.000030 0.003487 0.001180 -90.988930 155.664078
[R_front_hand01_01]
4 87.624611 14.231146 22.918642 -154.238968 -59.839840 61.284889 91.683487
5 87.624611 14.231146 22.918642 -153.171539 -59.529896 60.052429 91.683487
[R_front_hand02_01]
4 89.356956 14.367283 -19.491137 154.231567 58.196690 63.311184 92.579636
5 89.356956 14.367283 -19.491137 153.232147 57.885738 62.134083 92.579636
[R_front_hand03_01]
4 87.286232 -22.307278 -0.143439 0.161230 -0.423521 -75.517479 90.091743
5 87.286232 -22.307278 -0.143439 0.154710 -0.427505 -74.818459 90.091743
[R_front_hand01_02]
4 71.020905 0.000060 0.000119 0.002323 -0.000334 106.381714 71.020905
5 71.020905 0.000060 0.000119 0.002323 -0.000334 106.381714 71.020905
[R_front_hand02_02]
4 71.020844 -0.000030 -0.000119 0.002323 -0.000334 106.381714 71.020836
5 71.020844 -0.000030 -0.000119 0.002323 -0.000334 106.381714 71.020836
[R_front_hand03_02]
4 71.020905 0.000000 0.000030 0.002323 -0.000334 106.381714 71.020905
5 71.020905 0.000000 0.000030 0.002323 -0.000334 106.381714 71.020905
[null_rope01_connect]
4 328.732483 0.000000 -0.000238 -158.216019 -75.360512 -120.597946 328.732483
5 328.732483 0.000000 -0.000238 -156.301880 -79.412476 -123.919151 328.732483
[Rope1_Seg01]
4 -0.000004 0.000034 0.000015 -9.715278 7.345674 -86.649765 0.000038
5 -0.000005 0.000033 0.000020 -13.905149 8.276619 -79.976563 0.000039
[Rope1_Seg02]
4 139.999863 -0.000179 0.000000 8.455083 1.066606 -8.671402 139.999863
5 139.999863 -0.000179 0.000000 6.934681 2.572281 -10.135024 139.999863
[Rope1_Seg03]
4 139.999924 0.000060 -0.000060 13.878685 -0.505747 -8.787217 139.999924
5 139.999924 0.000060 -0.000060 13.345642 1.058677 -10.671322 139.999924
[Rope1_Seg04]
4 139.999924 -0.000060 -0.000119 23.276571 -3.485419 -9.226292 139.999924
5 139.999924 -0.000060 -0.000119 28.504086 -2.709735 -11.949079 139.999924
[Rope1_Seg05]
4 139.999832 0.000119 -0.000060 1.861690 0.648121 -1.729016 139.999832
5 139.999832 0.000119 -0.000060 9.167561 -0.483986 -3.848349 139.999832
[Rope1_Seg06]
4 139.999954 0.000119 -0.000060 -16.546349 5.551332 1.750829 139.999954
5 139.999954 0.000119 -0.000060 -14.809735 5.408051 -0.437072 139.999954
[Rope1_Seg07]
4 139.999985 0.000060 0.000000 -8.243519 2.456290 1.099286 139.999985
5 139.999985 0.000060 0.000000 -9.779955 2.988157 -0.139836 139.999985
[Rope1_Seg09]
4 121.602913 0.000119 -0.000089 -89.793175 -1.359789 0.847147 121.602913
5 121.602913 0.000119 -0.000089 -89.793175 -1.359789 0.847147 121.602913
[L_mid_hand01]
4 103.859421 1.038730 8.195221 119.391953 -59.659550 -26.459229 104.187431
5 103.859421 1.038730 8.195221 115.408714 -54.701881 -21.722248 104.187431
[L_mid_hand02]
4 105.572853 -4.139662 -10.864139 -160.502609 40.861904 -60.979630 106.211075
5 105.572853 -4.139662 -10.864139 -156.174301 38.799179 -54.227295 106.211075
[L_mid_hand03]
4 104.641464 17.579376 -3.913581 -8.971709 16.553080 64.913109 106.179977
5 104.641464 17.579376 -3.913581 -10.556284 15.605946 59.190216 106.179977
[null_rope02_connect]
4 328.732849 0.000179 -0.000119 -121.655586 80.056160 -14.206110 328.732849
5 328.732849 0.000179 -0.000119 -108.390686 82.808327 -0.430166 328.732849
[Rope2_Seg01]
4 0.000042 0.000137 0.000000 90.163956 0.832440 -90.453102 0.000144
5 0.000043 0.000132 0.000000 91.187164 -0.112029 -96.142769 0.000139
[Rope2_Seg02]
4 139.999741 -0.000060 -0.000119 -2.899857 9.006920 -1.120061 139.999756
5 139.999741 -0.000060 -0.000119 -2.013836 9.663821 -2.055025 139.999756
[Rope2_Seg03]
4 140.000107 0.000030 0.000000 -5.310912 10.184414 -0.755251 140.000107
5 140.000107 0.000030 0.000000 -4.039260 11.599610 -2.085140 140.000107
[Rope2_Seg04]
4 139.999802 0.000000 -0.000060 -25.155209 17.942734 1.239314 139.999802
5 139.999802 0.000000 -0.000060 -19.490484 18.942963 -1.327865 139.999802
[Rope2_Seg05]
4 139.999985 -0.000060 0.000119 -25.905216 7.576512 3.710267 139.999985
5 139.999985 -0.000060 0.000119 -44.817078 12.727790 3.341707 139.999985
[Rope2_Seg06]
4 139.999893 -0.000030 -0.000119 39.248272 -5.071279 -10.887362 139.999893
5 139.999893 -0.000030 -0.000119 29.360855 -1.208451 -5.751888 139.999893
[Rope2_Seg07]
4 139.999893 0.000060 -0.000060 25.101147 -18.122871 -8.501534 139.999893
5 139.999893 0.000060 -0.000060 43.888996 -15.627885 -14.001666 139.999893
[Rope2_Seg09]
4 121.338966 0.000089 -0.000060 33.793236 -1.359788 -0.847141 121.338966
5 121.338966 0.000089 -0.000060 33.793236 -1.359788 -0.847141 121.338966
[R_mid_hand01]
4 104.680779 11.144459 -10.335981 -20.399712 43.830379 64.493820 105.778534
5 104.680779 11.144459 -10.335981 -22.984858 42.734222 60.718655 105.778534
[R_mid_hand02]
4 104.070427 2.443552 8.231699 55.242668 -64.206009 32.532043 104.424065
5 104.070427 2.443552 8.231699 58.419544 -61.729733 28.969135 104.424065
[R_mid_hand03]
4 106.028137 -11.221827 -5.996406 -175.861618 15.275426 -71.940247 106.788818
5 106.028137 -11.221827 -5.996406 -175.069138 15.041782 -68.893341 106.788818
[spine02]
4 129.756927 0.001550 0.000119 0.452387 -4.034702 -14.278849 129.756927
5 129.756927 0.001550 0.000119 0.478561 -4.031518 -14.603992 129.756927
[spine03]
4 78.614052 0.081619 -4.899013 1.952780 3.802849 17.324955 78.766586
5 78.614044 0.081614 -4.899012 1.964325 3.798678 17.525537 78.766579
[pelvis]
4 169.435242 0.051022 0.000000 -0.063173 -0.179294 15.813828 169.435257
5 169.435242 0.051022 0.000000 -0.068701 -0.178372 16.218376 169.435257
[null_rope03_connect]
4 -1.257226 -2.466202 137.391083 -15.615933 -88.163574 65.100601 137.418976
5 -1.257226 -2.466202 137.391083 -17.453421 -86.680527 63.494431 137.418976
[null_rope04_connect]
4 -1.259640 -2.480268 -137.844437 -15.615933 -88.163574 65.100601 137.872513
5 -1.259640 -2.480268 -137.844437 -17.453421 -86.680527 63.494431 137.872513
[Rope3_Seg01]
4 0.000010 0.000038 -0.000114 -132.253754 8.550046 -91.030006 0.000121
5 0.000010 0.000038 -0.000114 -132.175354 8.426838 -90.477028 0.000121
[Rope3_Seg02]
4 139.999924 -0.000119 0.000060 -0.527904 -4.672447 -1.823172 139.999924
5 139.999924 -0.000119 0.000060 -0.417919 -3.589530 -1.296528 139.999924
[Rope3_Seg03]
4 139.999924 -0.000119 0.000119 -0.295142 -4.862716 -2.104591 139.999924
5 139.999924 -0.000119 0.000119 -0.302243 -3.806347 -1.428329 139.999924
[Rope3_Seg04]
4 139.999924 0.000119 0.000000 0.110702 -6.481478 -4.637486 139.999924
5 139.999924 0.000119 0.000000 -0.193148 -5.401832 -2.588823 139.999924
[Rope3_Seg05]
4 139.999924 -0.000238 0.000060 0.184102 -2.838854 0.823284 139.999924
5 139.999924 -0.000238 0.000060 0.089574 -2.955682 -0.722963 139.999924
[Rope3_Seg06]
4 139.999893 -0.000119 -0.000060 0.446684 1.551570 6.515422 139.999893
5 139.999893 -0.000119 -0.000060 0.428873 1.156127 2.137826 139.999893
[Rope3_Seg07]
4 139.999771 0.000060 -0.000119 0.319546 0.573989 4.178409 139.999771
5 139.999771 0.000060 -0.000119 0.489138 0.588807 1.497847 139.999771
[Rope3_Seg08]
4 139.999985 -0.000060 0.000000 0.320044 0.083889 2.440306 139.999985
5 139.999985 -0.000060 0.000000 0.496577 0.047617 0.808027 139.999985
[Rope3_Seg09]
4 90.185997 -0.000179 -0.000060 89.793228 -1.359877 -0.847183 90.185997
5 90.185997 -0.000179 -0.000060 89.793228 -1.359877 -0.847183 90.185997
[R_rear_hand01]
4 103.366196 -6.073594 -10.757982 -175.114853 24.208797 -67.632149 104.101845
5 103.366196 -6.073594 -10.757982 -173.471771 23.840069 -63.595013 104.101845
[R_rear_hand02]
4 100.509819 12.039542 -7.992327 -16.923939 35.395069 65.303368 101.543350
5 100.509819 12.039542 -7.992327 -19.370905 34.238888 61.013897 101.543350
[R_rear_hand03]
4 101.539970 5.215704 5.435467 75.730560 -66.314209 16.974052 101.819031
5 101.539970 5.215704 5.435467 77.523743 -62.710114 14.990737 101.819031
[Rope4_Seg01]
4 0.000010 0.000038 -0.000114 57.712093 22.460350 -78.951729 0.000121
5 0.000010 0.000038 -0.000114 56.595654 16.516331 -69.656540 0.000121
[Rope4_Seg02]
4 139.999985 0.000060 0.000119 -0.238001 -6.699118 -2.085093 139.999985
5 139.999985 0.000060 0.000119 1.072893 -7.452947 -4.867394 139.999985
[Rope4_Seg03]
4 139.999924 0.000000 -0.000238 -0.065397 -8.278419 -2.636787 139.999924
5 139.999924 0.000000 -0.000238 1.120025 -9.717231 -6.191911 139.999924
[Rope4_Seg04]
4 139.999985 0.000000 0.000119 0.495998 -16.102961 -4.305195 139.999985
5 139.999985 0.000000 0.000119 1.945726 -17.416708 -10.985548 139.999985
[Rope4_Seg05]
4 139.999802 -0.000060 -0.000119 0.218972 -5.813422 -2.718491 139.999802
5 139.999802 -0.000060 -0.000119 0.279319 -8.996001 -5.608585 139.999802
[Rope4_Seg06]
4 139.999924 0.000000 0.000060 -0.233917 11.024454 0.699561 139.999924
5 139.999924 0.000000 0.000060 0.631559 8.526889 4.850934 139.999924
[Rope4_Seg07]
4 139.999802 0.000000 0.000000 0.207060 5.275349 0.159736 139.999802
5 139.999802 0.000000 0.000000 0.333977 5.877535 3.287718 139.999802
[Rope4_Seg08]
4 139.999924 0.000000 0.000119 -1.355497 2.325445 -0.085214 139.999924
5 139.999924 0.000000 0.000119 -1.430853 2.167884 1.156930 139.999924
[Rope4_Seg09]
4 90.185791 0.000060 0.000060 -135.617828 2.228885 0.850567 90.185791
5 90.185791 0.000060 0.000060 -135.617828 2.228885 0.850567 90.185791
[L_rear_hand01]
4 101.696655 -8.392275 -7.654577 -23.837845 -31.499460 127.199913 102.329041
5 101.696655 -8.392275 -7.654577 -28.015862 -27.942142 135.607529 102.329041
[L_rear_hand02]
4 102.726799 -1.568258 5.773216 79.944244 55.427822 167.828537 102.900848
5 102.726799 -1.568258 5.773216 81.577332 47.415264 169.913025 102.900848
[L_rear_hand03]
4 104.552910 9.721220 -10.420293 -170.300720 -22.790039 -124.406273 105.519653
5 104.552910 9.721220 -10.420293 -167.078079 -21.194330 -132.993347 105.519653
